<mxfile host="app.diagrams.net" agent="Mozilla/5.0 (Macintosh; Intel Mac OS X 10_15_7) AppleWebKit/537.36 (KHTML, like Gecko) Chrome/131.0.0.0 Safari/537.36" version="26.0.10">
  <diagram name="Pagina-1" id="G8kjAlk_GBHAxWzY2wQV">
    <mxGraphModel dx="1254" dy="639" grid="1" gridSize="10" guides="1" tooltips="1" connect="1" arrows="1" fold="1" page="1" pageScale="1" pageWidth="827" pageHeight="1169" math="0" shadow="0">
      <root>
        <mxCell id="0" />
        <mxCell id="1" parent="0" />
        <mxCell id="cSvHSWAlFdiokaMuMZuH-1" value="reo:Work" style="graphMlID=n4;shape=rect;rounded=1;arcsize=30;fillColor=#ffff00;strokeColor=#000000;strokeWidth=1.0" parent="1" vertex="1">
          <mxGeometry x="200" y="150" width="81.96822102864604" height="44" as="geometry" />
        </mxCell>
        <mxCell id="cSvHSWAlFdiokaMuMZuH-2" value="NLP e LLM" style="graphMlID=n9;shape=ellipse;fillColor=#ff99cc;strokeColor=#000000;strokeWidth=3.0;verticalAlign=middle;labelPosition=right;verticalLabelPosition=middle;align=left;spacingRight=1;spacing=17;" parent="1" vertex="1">
          <mxGeometry x="230.98" y="280" width="20" height="20" as="geometry" />
        </mxCell>
        <mxCell id="cSvHSWAlFdiokaMuMZuH-3" value="" style="endArrow=classic;html=1;textDirection=ltr;rounded=0;exitX=0.5;exitY=0;exitDx=0;exitDy=0;entryX=0.5;entryY=1;entryDx=0;entryDy=0;" parent="1" source="cSvHSWAlFdiokaMuMZuH-2" target="cSvHSWAlFdiokaMuMZuH-1" edge="1">
          <mxGeometry width="50" height="50" relative="1" as="geometry">
            <mxPoint x="340" y="300" as="sourcePoint" />
            <mxPoint x="487.95000000000005" y="300" as="targetPoint" />
          </mxGeometry>
        </mxCell>
        <mxCell id="cSvHSWAlFdiokaMuMZuH-4" value="rdf:type" style="text;html=1;align=center;verticalAlign=middle;resizable=0;points=[];labelBackgroundColor=#ffffff;rotation=0;" parent="cSvHSWAlFdiokaMuMZuH-3" vertex="1" connectable="0">
          <mxGeometry x="-0.2211" relative="1" as="geometry">
            <mxPoint x="19.95" as="offset" />
          </mxGeometry>
        </mxCell>
        <mxCell id="cSvHSWAlFdiokaMuMZuH-7" value="" style="graphMlID=e0;rounded=0;endArrow=block;strokeColor=#000080;strokeWidth=1.0;startArrow=oval;startFill=1;endFill=1;exitX=0.5;exitY=1;exitDx=0;exitDy=0;entryX=0;entryY=0;entryDx=0;entryDy=0;" parent="1" source="cSvHSWAlFdiokaMuMZuH-2" target="cSvHSWAlFdiokaMuMZuH-9" edge="1">
          <mxGeometry relative="1" as="geometry">
            <mxPoint x="340" y="300.08183758898736" as="sourcePoint" />
            <mxPoint x="320" y="350" as="targetPoint" />
          </mxGeometry>
        </mxCell>
        <mxCell id="cSvHSWAlFdiokaMuMZuH-8" value="&lt;span style=&quot;color: rgb(0, 0, 128); font-family: dialog; font-size: 16px; background-color: rgb(248, 249, 250);&quot;&gt;reo:hasType&lt;/span&gt;" style="text;html=1;align=center;verticalAlign=middle;resizable=0;points=[];labelBackgroundColor=#ffffff;" parent="cSvHSWAlFdiokaMuMZuH-7" vertex="1" connectable="0">
          <mxGeometry x="-0.0174" y="2" relative="1" as="geometry">
            <mxPoint as="offset" />
          </mxGeometry>
        </mxCell>
        <mxCell id="cSvHSWAlFdiokaMuMZuH-9" value="bookChapter" style="graphMlID=n9;shape=ellipse;fillColor=#ff99cc;strokeColor=#000000;strokeWidth=3.0;verticalAlign=middle;labelPosition=right;verticalLabelPosition=middle;align=left;spacingRight=1;spacing=17;" parent="1" vertex="1">
          <mxGeometry x="290" y="370" width="20" height="20" as="geometry" />
        </mxCell>
        <mxCell id="cSvHSWAlFdiokaMuMZuH-10" value="dul:Type" style="graphMlID=n4;shape=rect;rounded=1;arcsize=30;fillColor=#ffff00;strokeColor=#000000;strokeWidth=1.0" parent="1" vertex="1">
          <mxGeometry x="380" y="300" width="81.96822102864604" height="44" as="geometry" />
        </mxCell>
        <mxCell id="cSvHSWAlFdiokaMuMZuH-11" value="" style="endArrow=classic;html=1;textDirection=ltr;rounded=0;exitX=0.777;exitY=0.15;exitDx=0;exitDy=0;entryX=0.5;entryY=1;entryDx=0;entryDy=0;exitPerimeter=0;" parent="1" source="cSvHSWAlFdiokaMuMZuH-9" target="cSvHSWAlFdiokaMuMZuH-10" edge="1">
          <mxGeometry width="50" height="50" relative="1" as="geometry">
            <mxPoint x="340" y="300" as="sourcePoint" />
            <mxPoint x="487.95000000000005" y="300" as="targetPoint" />
          </mxGeometry>
        </mxCell>
        <mxCell id="cSvHSWAlFdiokaMuMZuH-12" value="type" style="text;html=1;align=center;verticalAlign=middle;resizable=0;points=[];labelBackgroundColor=#ffffff;rotation=0;" parent="cSvHSWAlFdiokaMuMZuH-11" vertex="1" connectable="0">
          <mxGeometry x="-0.2211" relative="1" as="geometry">
            <mxPoint x="19.95" as="offset" />
          </mxGeometry>
        </mxCell>
        <mxCell id="cSvHSWAlFdiokaMuMZuH-13" value="reo:Role" style="graphMlID=n4;shape=rect;rounded=1;arcsize=30;fillColor=#ffff00;strokeColor=#000000;strokeWidth=1.0" parent="1" vertex="1">
          <mxGeometry x="87.03999999999999" y="610" width="81.96822102864604" height="44" as="geometry" />
        </mxCell>
        <mxCell id="cSvHSWAlFdiokaMuMZuH-14" value="PhD Student" style="graphMlID=n9;shape=ellipse;fillColor=#ff99cc;strokeColor=#000000;strokeWidth=3.0;verticalAlign=middle;labelPosition=right;verticalLabelPosition=middle;align=left;spacingRight=1;spacing=17;" parent="1" vertex="1">
          <mxGeometry x="149" y="480" width="20" height="20" as="geometry" />
        </mxCell>
        <mxCell id="cSvHSWAlFdiokaMuMZuH-15" value="" style="endArrow=classic;html=1;textDirection=ltr;rounded=0;entryX=0.646;entryY=0.05;entryDx=0;entryDy=0;entryPerimeter=0;exitX=0.5;exitY=1;exitDx=0;exitDy=0;" parent="1" target="cSvHSWAlFdiokaMuMZuH-13" edge="1" source="cSvHSWAlFdiokaMuMZuH-14">
          <mxGeometry width="50" height="50" relative="1" as="geometry">
            <mxPoint x="160" y="510" as="sourcePoint" />
            <mxPoint x="120" y="630" as="targetPoint" />
          </mxGeometry>
        </mxCell>
        <mxCell id="cSvHSWAlFdiokaMuMZuH-16" value="rdf:type" style="text;html=1;align=center;verticalAlign=middle;resizable=0;points=[];labelBackgroundColor=#ffffff;rotation=0;" parent="cSvHSWAlFdiokaMuMZuH-15" vertex="1" connectable="0">
          <mxGeometry x="-0.2211" relative="1" as="geometry">
            <mxPoint x="19.95" as="offset" />
          </mxGeometry>
        </mxCell>
        <mxCell id="cSvHSWAlFdiokaMuMZuH-17" value="foaf:Person" style="graphMlID=n4;shape=rect;rounded=1;arcsize=30;fillColor=#ffff00;strokeColor=#000000;strokeWidth=1.0" parent="1" vertex="1">
          <mxGeometry x="29.999999999999993" y="150" width="81.96822102864604" height="44" as="geometry" />
        </mxCell>
        <mxCell id="cSvHSWAlFdiokaMuMZuH-18" value="Lia Draetta" style="graphMlID=n9;shape=ellipse;fillColor=#ff99cc;strokeColor=#000000;strokeWidth=3.0;verticalAlign=middle;labelPosition=right;verticalLabelPosition=middle;align=left;spacingRight=1;spacing=17;" parent="1" vertex="1">
          <mxGeometry x="50.97999999999999" y="280" width="20" height="20" as="geometry" />
        </mxCell>
        <mxCell id="cSvHSWAlFdiokaMuMZuH-19" value="" style="endArrow=classic;html=1;textDirection=ltr;rounded=0;exitX=0.5;exitY=0;exitDx=0;exitDy=0;entryX=0.5;entryY=1;entryDx=0;entryDy=0;" parent="1" edge="1">
          <mxGeometry width="50" height="50" relative="1" as="geometry">
            <mxPoint x="60.5" y="280" as="sourcePoint" />
            <mxPoint x="60.5" y="194" as="targetPoint" />
          </mxGeometry>
        </mxCell>
        <mxCell id="cSvHSWAlFdiokaMuMZuH-20" value="rdf:type" style="text;html=1;align=center;verticalAlign=middle;resizable=0;points=[];labelBackgroundColor=#ffffff;rotation=0;" parent="cSvHSWAlFdiokaMuMZuH-19" vertex="1" connectable="0">
          <mxGeometry x="-0.2211" relative="1" as="geometry">
            <mxPoint x="19.95" as="offset" />
          </mxGeometry>
        </mxCell>
        <mxCell id="cSvHSWAlFdiokaMuMZuH-27" value="" style="graphMlID=e0;rounded=0;endArrow=block;strokeColor=#000080;strokeWidth=1.0;startArrow=oval;startFill=1;endFill=1;exitX=0.5;exitY=1;exitDx=0;exitDy=0;entryX=0;entryY=0;entryDx=0;entryDy=0;" parent="1" source="cSvHSWAlFdiokaMuMZuH-18" target="cSvHSWAlFdiokaMuMZuH-14" edge="1">
          <mxGeometry relative="1" as="geometry">
            <mxPoint x="380" y="370.08183758898736" as="sourcePoint" />
            <mxPoint x="531" y="370" as="targetPoint" />
            <Array as="points">
              <mxPoint x="110" y="430" />
            </Array>
          </mxGeometry>
        </mxCell>
        <mxCell id="cSvHSWAlFdiokaMuMZuH-28" value="&lt;span style=&quot;color: rgb(0, 0, 128); font-family: dialog; font-size: 16px; background-color: rgb(248, 249, 250);&quot;&gt;reo:hasCurrentRole&lt;/span&gt;" style="text;html=1;align=center;verticalAlign=middle;resizable=0;points=[];labelBackgroundColor=#ffffff;" parent="cSvHSWAlFdiokaMuMZuH-27" vertex="1" connectable="0">
          <mxGeometry x="-0.0174" y="2" relative="1" as="geometry">
            <mxPoint as="offset" />
          </mxGeometry>
        </mxCell>
        <mxCell id="cSvHSWAlFdiokaMuMZuH-29" style="edgeStyle=orthogonalEdgeStyle;rounded=0;orthogonalLoop=1;jettySize=auto;html=1;exitX=0.5;exitY=1;exitDx=0;exitDy=0;" parent="1" source="cSvHSWAlFdiokaMuMZuH-14" target="cSvHSWAlFdiokaMuMZuH-14" edge="1">
          <mxGeometry relative="1" as="geometry" />
        </mxCell>
        <mxCell id="cSvHSWAlFdiokaMuMZuH-32" value="" style="graphMlID=e0;rounded=0;endArrow=block;strokeColor=#000080;strokeWidth=1.0;startArrow=oval;startFill=1;endFill=1;exitX=0.5;exitY=1;exitDx=0;exitDy=0;entryX=0;entryY=0.5;entryDx=0;entryDy=0;" parent="1" source="cSvHSWAlFdiokaMuMZuH-18" target="cSvHSWAlFdiokaMuMZuH-2" edge="1">
          <mxGeometry relative="1" as="geometry">
            <mxPoint x="370" y="400.08183758898736" as="sourcePoint" />
            <mxPoint x="521" y="400" as="targetPoint" />
            <Array as="points">
              <mxPoint x="140" y="320" />
            </Array>
          </mxGeometry>
        </mxCell>
        <mxCell id="cSvHSWAlFdiokaMuMZuH-33" value="&lt;span style=&quot;color: rgb(0, 0, 128); font-family: dialog; font-size: 16px; background-color: rgb(248, 249, 250);&quot;&gt;reo:firstAuthorOf&lt;/span&gt;" style="text;html=1;align=center;verticalAlign=middle;resizable=0;points=[];labelBackgroundColor=#ffffff;" parent="cSvHSWAlFdiokaMuMZuH-32" vertex="1" connectable="0">
          <mxGeometry x="-0.0174" y="2" relative="1" as="geometry">
            <mxPoint as="offset" />
          </mxGeometry>
        </mxCell>
        <mxCell id="cSvHSWAlFdiokaMuMZuH-34" value="NLO forever" style="graphMlID=n9;shape=ellipse;fillColor=#ff99cc;strokeColor=#000000;strokeWidth=3.0;verticalAlign=middle;labelPosition=right;verticalLabelPosition=middle;align=left;spacingRight=1;spacing=17;" parent="1" vertex="1">
          <mxGeometry x="410.98" y="220" width="20" height="20" as="geometry" />
        </mxCell>
        <mxCell id="cSvHSWAlFdiokaMuMZuH-39" value="" style="endArrow=classic;html=1;textDirection=ltr;rounded=0;exitX=0;exitY=0.5;exitDx=0;exitDy=0;entryX=1;entryY=0.5;entryDx=0;entryDy=0;" parent="1" source="cSvHSWAlFdiokaMuMZuH-34" target="cSvHSWAlFdiokaMuMZuH-1" edge="1">
          <mxGeometry width="50" height="50" relative="1" as="geometry">
            <mxPoint x="370" y="400" as="sourcePoint" />
            <mxPoint x="517.95" y="400" as="targetPoint" />
          </mxGeometry>
        </mxCell>
        <mxCell id="cSvHSWAlFdiokaMuMZuH-40" value="rdf:type" style="text;html=1;align=center;verticalAlign=middle;resizable=0;points=[];labelBackgroundColor=#ffffff;rotation=0;" parent="cSvHSWAlFdiokaMuMZuH-39" vertex="1" connectable="0">
          <mxGeometry x="-0.2211" relative="1" as="geometry">
            <mxPoint x="19.95" as="offset" />
          </mxGeometry>
        </mxCell>
        <mxCell id="cSvHSWAlFdiokaMuMZuH-41" value="" style="graphMlID=e0;rounded=0;endArrow=block;strokeColor=#000080;strokeWidth=1.0;startArrow=oval;startFill=1;endFill=1;exitX=0;exitY=0.5;exitDx=0;exitDy=0;entryX=0.5;entryY=0;entryDx=0;entryDy=0;edgeStyle=orthogonalEdgeStyle;" parent="1" source="cSvHSWAlFdiokaMuMZuH-18" target="cSvHSWAlFdiokaMuMZuH-34" edge="1">
          <mxGeometry relative="1" as="geometry">
            <mxPoint x="370" y="400.08183758898736" as="sourcePoint" />
            <mxPoint x="521" y="400" as="targetPoint" />
            <Array as="points">
              <mxPoint x="20" y="290" />
              <mxPoint x="20" y="120" />
              <mxPoint x="421" y="120" />
            </Array>
          </mxGeometry>
        </mxCell>
        <mxCell id="cSvHSWAlFdiokaMuMZuH-42" value="&lt;span style=&quot;color: rgb(0, 0, 128); font-family: dialog; font-size: 16px; background-color: rgb(248, 249, 250);&quot;&gt;authorOf&lt;/span&gt;" style="text;html=1;align=center;verticalAlign=middle;resizable=0;points=[];labelBackgroundColor=#ffffff;" parent="cSvHSWAlFdiokaMuMZuH-41" vertex="1" connectable="0">
          <mxGeometry x="-0.0174" y="2" relative="1" as="geometry">
            <mxPoint as="offset" />
          </mxGeometry>
        </mxCell>
        <mxCell id="cSvHSWAlFdiokaMuMZuH-48" value="reo:PublicEngagement" style="graphMlID=n4;shape=rect;rounded=1;arcsize=30;fillColor=#ffff00;strokeColor=#000000;strokeWidth=1.0" parent="1" vertex="1">
          <mxGeometry x="240" y="520" width="125.98" height="54" as="geometry" />
        </mxCell>
        <mxCell id="cSvHSWAlFdiokaMuMZuH-50" value="proiezione film NLP" style="graphMlID=n9;shape=ellipse;fillColor=#ff99cc;strokeColor=#000000;strokeWidth=3.0;verticalAlign=middle;labelPosition=right;verticalLabelPosition=middle;align=left;spacingRight=1;spacing=17;" parent="1" vertex="1">
          <mxGeometry x="300.98" y="660" width="20" height="20" as="geometry" />
        </mxCell>
        <mxCell id="cSvHSWAlFdiokaMuMZuH-51" value="" style="endArrow=classic;html=1;textDirection=ltr;rounded=0;exitX=0.5;exitY=0;exitDx=0;exitDy=0;entryX=0.5;entryY=1;entryDx=0;entryDy=0;" parent="1" source="cSvHSWAlFdiokaMuMZuH-50" target="cSvHSWAlFdiokaMuMZuH-48" edge="1">
          <mxGeometry width="50" height="50" relative="1" as="geometry">
            <mxPoint x="370" y="500" as="sourcePoint" />
            <mxPoint x="517.95" y="500" as="targetPoint" />
          </mxGeometry>
        </mxCell>
        <mxCell id="cSvHSWAlFdiokaMuMZuH-52" value="rdf:type" style="text;html=1;align=center;verticalAlign=middle;resizable=0;points=[];labelBackgroundColor=#ffffff;rotation=0;" parent="cSvHSWAlFdiokaMuMZuH-51" vertex="1" connectable="0">
          <mxGeometry x="-0.2211" relative="1" as="geometry">
            <mxPoint x="19.95" as="offset" />
          </mxGeometry>
        </mxCell>
        <mxCell id="cSvHSWAlFdiokaMuMZuH-53" value="" style="graphMlID=e0;rounded=0;endArrow=block;strokeColor=#000080;strokeWidth=1.0;startArrow=oval;startFill=1;endFill=1;exitX=0.5;exitY=1;exitDx=0;exitDy=0;entryX=0.5;entryY=1;entryDx=0;entryDy=0;" parent="1" source="cSvHSWAlFdiokaMuMZuH-50" target="cSvHSWAlFdiokaMuMZuH-55" edge="1">
          <mxGeometry relative="1" as="geometry">
            <mxPoint x="370" y="590.0818375889874" as="sourcePoint" />
            <mxPoint x="570" y="830" as="targetPoint" />
            <Array as="points">
              <mxPoint x="420" y="710" />
            </Array>
          </mxGeometry>
        </mxCell>
        <mxCell id="cSvHSWAlFdiokaMuMZuH-54" value="&lt;span style=&quot;color: rgb(0, 0, 128); font-family: dialog; font-size: 16px; background-color: rgb(248, 249, 250);&quot;&gt;reo:hasType&lt;/span&gt;" style="text;html=1;align=center;verticalAlign=middle;resizable=0;points=[];labelBackgroundColor=#ffffff;" parent="cSvHSWAlFdiokaMuMZuH-53" vertex="1" connectable="0">
          <mxGeometry x="-0.0174" y="2" relative="1" as="geometry">
            <mxPoint as="offset" />
          </mxGeometry>
        </mxCell>
        <mxCell id="cSvHSWAlFdiokaMuMZuH-55" value="culturalIniziatives" style="graphMlID=n9;shape=ellipse;fillColor=#ff99cc;strokeColor=#000000;strokeWidth=3.0;verticalAlign=middle;labelPosition=right;verticalLabelPosition=middle;align=left;spacingRight=1;spacing=17;" parent="1" vertex="1">
          <mxGeometry x="414" y="634" width="20" height="20" as="geometry" />
        </mxCell>
        <mxCell id="cSvHSWAlFdiokaMuMZuH-56" value="" style="endArrow=classic;html=1;textDirection=ltr;rounded=0;exitX=0.5;exitY=0;exitDx=0;exitDy=0;entryX=0.5;entryY=1;entryDx=0;entryDy=0;" parent="1" source="cSvHSWAlFdiokaMuMZuH-55" target="cSvHSWAlFdiokaMuMZuH-10" edge="1">
          <mxGeometry width="50" height="50" relative="1" as="geometry">
            <mxPoint x="461" y="760" as="sourcePoint" />
            <mxPoint x="650" y="700" as="targetPoint" />
          </mxGeometry>
        </mxCell>
        <mxCell id="cSvHSWAlFdiokaMuMZuH-57" value="rdf:type" style="text;html=1;align=center;verticalAlign=middle;resizable=0;points=[];labelBackgroundColor=#ffffff;rotation=0;" parent="cSvHSWAlFdiokaMuMZuH-56" vertex="1" connectable="0">
          <mxGeometry x="-0.2211" relative="1" as="geometry">
            <mxPoint x="19.95" as="offset" />
          </mxGeometry>
        </mxCell>
        <mxCell id="cSvHSWAlFdiokaMuMZuH-65" value="reo:Project" style="graphMlID=n4;shape=rect;rounded=1;arcsize=30;fillColor=#ffff00;strokeColor=#000000;strokeWidth=1.0" parent="1" vertex="1">
          <mxGeometry x="680.99" y="358" width="81.96822102864604" height="44" as="geometry" />
        </mxCell>
        <mxCell id="cSvHSWAlFdiokaMuMZuH-72" value="NationalProjecy" style="graphMlID=n9;shape=ellipse;fillColor=#ff99cc;strokeColor=#000000;strokeWidth=3.0;verticalAlign=middle;labelPosition=right;verticalLabelPosition=middle;align=left;spacingRight=1;spacing=17;" parent="1" vertex="1">
          <mxGeometry x="520" y="480" width="20" height="20" as="geometry" />
        </mxCell>
        <mxCell id="cSvHSWAlFdiokaMuMZuH-75" value="" style="endArrow=classic;html=1;textDirection=ltr;rounded=0;exitX=0.5;exitY=0;exitDx=0;exitDy=0;entryX=0.75;entryY=1;entryDx=0;entryDy=0;" parent="1" source="cSvHSWAlFdiokaMuMZuH-72" target="cSvHSWAlFdiokaMuMZuH-10" edge="1">
          <mxGeometry width="50" height="50" relative="1" as="geometry">
            <mxPoint x="320" y="430" as="sourcePoint" />
            <mxPoint x="467.95000000000005" y="430" as="targetPoint" />
          </mxGeometry>
        </mxCell>
        <mxCell id="cSvHSWAlFdiokaMuMZuH-76" value="rdf:type" style="text;html=1;align=center;verticalAlign=middle;resizable=0;points=[];labelBackgroundColor=#ffffff;rotation=0;" parent="cSvHSWAlFdiokaMuMZuH-75" vertex="1" connectable="0">
          <mxGeometry x="-0.2211" relative="1" as="geometry">
            <mxPoint x="19.95" as="offset" />
          </mxGeometry>
        </mxCell>
        <mxCell id="cSvHSWAlFdiokaMuMZuH-78" value="IlMioProgetto" style="graphMlID=n9;shape=ellipse;fillColor=#ff99cc;strokeColor=#000000;strokeWidth=3.0;verticalAlign=middle;labelPosition=right;verticalLabelPosition=middle;align=left;spacingRight=1;spacing=17;" parent="1" vertex="1">
          <mxGeometry x="711.97" y="565" width="20" height="20" as="geometry" />
        </mxCell>
        <mxCell id="cSvHSWAlFdiokaMuMZuH-79" value="" style="graphMlID=e0;rounded=0;endArrow=block;strokeColor=#000080;strokeWidth=1.0;startArrow=oval;startFill=1;endFill=1;exitX=0.5;exitY=0;exitDx=0;exitDy=0;entryX=0.5;entryY=1;entryDx=0;entryDy=0;" parent="1" source="cSvHSWAlFdiokaMuMZuH-83" target="cSvHSWAlFdiokaMuMZuH-72" edge="1">
          <mxGeometry relative="1" as="geometry">
            <mxPoint x="400" y="500.08183758898736" as="sourcePoint" />
            <mxPoint x="540" y="500" as="targetPoint" />
          </mxGeometry>
        </mxCell>
        <mxCell id="cSvHSWAlFdiokaMuMZuH-80" value="&lt;font face=&quot;dialog&quot; color=&quot;#000080&quot;&gt;&lt;span style=&quot;font-size: 16px; background-color: rgb(248, 249, 250);&quot;&gt;skos:narrower&lt;/span&gt;&lt;/font&gt;" style="text;html=1;align=center;verticalAlign=middle;resizable=0;points=[];labelBackgroundColor=#ffffff;" parent="cSvHSWAlFdiokaMuMZuH-79" vertex="1" connectable="0">
          <mxGeometry x="-0.0174" y="2" relative="1" as="geometry">
            <mxPoint as="offset" />
          </mxGeometry>
        </mxCell>
        <mxCell id="cSvHSWAlFdiokaMuMZuH-81" value="" style="endArrow=classic;html=1;textDirection=ltr;rounded=0;exitX=0.5;exitY=0;exitDx=0;exitDy=0;entryX=0.5;entryY=1;entryDx=0;entryDy=0;" parent="1" source="cSvHSWAlFdiokaMuMZuH-78" target="cSvHSWAlFdiokaMuMZuH-65" edge="1">
          <mxGeometry width="50" height="50" relative="1" as="geometry">
            <mxPoint x="400" y="500" as="sourcePoint" />
            <mxPoint x="547.95" y="500" as="targetPoint" />
          </mxGeometry>
        </mxCell>
        <mxCell id="cSvHSWAlFdiokaMuMZuH-82" value="rdf:type" style="text;html=1;align=center;verticalAlign=middle;resizable=0;points=[];labelBackgroundColor=#ffffff;rotation=0;" parent="cSvHSWAlFdiokaMuMZuH-81" vertex="1" connectable="0">
          <mxGeometry x="-0.2211" relative="1" as="geometry">
            <mxPoint x="19.95" as="offset" />
          </mxGeometry>
        </mxCell>
        <mxCell id="cSvHSWAlFdiokaMuMZuH-83" value="Bando Leonardo" style="graphMlID=n9;shape=ellipse;fillColor=#ff99cc;strokeColor=#000000;strokeWidth=3.0;verticalAlign=middle;labelPosition=right;verticalLabelPosition=middle;align=left;spacingRight=1;spacing=17;" parent="1" vertex="1">
          <mxGeometry x="520" y="574" width="20" height="20" as="geometry" />
        </mxCell>
        <mxCell id="cSvHSWAlFdiokaMuMZuH-86" value="" style="graphMlID=e0;rounded=0;endArrow=block;strokeColor=#000080;strokeWidth=1.0;startArrow=oval;startFill=1;endFill=1;exitX=0.5;exitY=1;exitDx=0;exitDy=0;entryX=0.5;entryY=1;entryDx=0;entryDy=0;edgeStyle=orthogonalEdgeStyle;" parent="1" source="cSvHSWAlFdiokaMuMZuH-78" target="cSvHSWAlFdiokaMuMZuH-83" edge="1">
          <mxGeometry relative="1" as="geometry">
            <mxPoint x="320" y="500.08183758898736" as="sourcePoint" />
            <mxPoint x="471" y="500" as="targetPoint" />
          </mxGeometry>
        </mxCell>
        <mxCell id="cSvHSWAlFdiokaMuMZuH-87" value="&lt;span style=&quot;color: rgb(0, 0, 128); font-family: dialog; font-size: 16px; background-color: rgb(248, 249, 250);&quot;&gt;reo:hasType&lt;/span&gt;" style="text;html=1;align=center;verticalAlign=middle;resizable=0;points=[];labelBackgroundColor=#ffffff;" parent="cSvHSWAlFdiokaMuMZuH-86" vertex="1" connectable="0">
          <mxGeometry x="-0.0174" y="2" relative="1" as="geometry">
            <mxPoint as="offset" />
          </mxGeometry>
        </mxCell>
        <mxCell id="cSvHSWAlFdiokaMuMZuH-89" value="foaf:Person" style="graphMlID=n4;shape=rect;rounded=1;arcsize=30;fillColor=#ffff00;strokeColor=#000000;strokeWidth=1.0" parent="1" vertex="1">
          <mxGeometry x="111.97000000000003" y="820" width="81.96822102864604" height="44" as="geometry" />
        </mxCell>
        <mxCell id="cSvHSWAlFdiokaMuMZuH-90" value="Lia draetta" style="graphMlID=n9;shape=ellipse;fillColor=#ff99cc;strokeColor=#000000;strokeWidth=3.0;verticalAlign=middle;labelPosition=right;verticalLabelPosition=middle;align=left;spacingRight=1;spacing=17;" parent="1" vertex="1">
          <mxGeometry x="142.95" y="930" width="20" height="20" as="geometry" />
        </mxCell>
        <mxCell id="cSvHSWAlFdiokaMuMZuH-93" value="" style="endArrow=classic;html=1;textDirection=ltr;rounded=0;exitX=0.5;exitY=0;exitDx=0;exitDy=0;entryX=0.5;entryY=1;entryDx=0;entryDy=0;" parent="1" source="cSvHSWAlFdiokaMuMZuH-90" target="cSvHSWAlFdiokaMuMZuH-89" edge="1">
          <mxGeometry width="50" height="50" relative="1" as="geometry">
            <mxPoint x="220" y="950" as="sourcePoint" />
            <mxPoint x="367.95000000000005" y="950" as="targetPoint" />
          </mxGeometry>
        </mxCell>
        <mxCell id="cSvHSWAlFdiokaMuMZuH-94" value="rdf:type" style="text;html=1;align=center;verticalAlign=middle;resizable=0;points=[];labelBackgroundColor=#ffffff;rotation=0;" parent="cSvHSWAlFdiokaMuMZuH-93" vertex="1" connectable="0">
          <mxGeometry x="-0.2211" relative="1" as="geometry">
            <mxPoint x="19.95" as="offset" />
          </mxGeometry>
        </mxCell>
        <mxCell id="cSvHSWAlFdiokaMuMZuH-95" value="org:Organization" style="graphMlID=n4;shape=rect;rounded=1;arcsize=30;fillColor=#ffff00;strokeColor=#000000;strokeWidth=1.0" parent="1" vertex="1">
          <mxGeometry x="440" y="800" width="91.97" height="54" as="geometry" />
        </mxCell>
        <mxCell id="cSvHSWAlFdiokaMuMZuH-96" value="reo:Department" style="graphMlID=n4;shape=rect;rounded=1;arcsize=30;fillColor=#ffff00;strokeColor=#000000;strokeWidth=1.0" parent="1" vertex="1">
          <mxGeometry x="340" y="906" width="100" height="44" as="geometry" />
        </mxCell>
        <mxCell id="cSvHSWAlFdiokaMuMZuH-97" value="reo:University" style="graphMlID=n4;shape=rect;rounded=1;arcsize=30;fillColor=#ffff00;strokeColor=#000000;strokeWidth=1.0" parent="1" vertex="1">
          <mxGeometry x="540" y="900" width="81.96822102864604" height="44" as="geometry" />
        </mxCell>
        <mxCell id="cSvHSWAlFdiokaMuMZuH-98" value="" style="endArrow=classic;html=1;textDirection=ltr;rounded=0;exitX=0.5;exitY=0;exitDx=0;exitDy=0;entryX=0.395;entryY=0.984;entryDx=0;entryDy=0;entryPerimeter=0;" parent="1" source="cSvHSWAlFdiokaMuMZuH-96" target="cSvHSWAlFdiokaMuMZuH-95" edge="1">
          <mxGeometry width="50" height="50" relative="1" as="geometry">
            <mxPoint x="230" y="930" as="sourcePoint" />
            <mxPoint x="377.95000000000005" y="930" as="targetPoint" />
          </mxGeometry>
        </mxCell>
        <mxCell id="cSvHSWAlFdiokaMuMZuH-99" value="rdf:subClassOf" style="text;html=1;align=center;verticalAlign=middle;resizable=0;points=[];labelBackgroundColor=#ffffff;rotation=0;" parent="cSvHSWAlFdiokaMuMZuH-98" vertex="1" connectable="0">
          <mxGeometry x="-0.2211" relative="1" as="geometry">
            <mxPoint x="19.95" as="offset" />
          </mxGeometry>
        </mxCell>
        <mxCell id="cSvHSWAlFdiokaMuMZuH-101" value="" style="endArrow=classic;html=1;textDirection=ltr;rounded=0;exitX=0.5;exitY=0;exitDx=0;exitDy=0;entryX=0.75;entryY=1;entryDx=0;entryDy=0;" parent="1" source="cSvHSWAlFdiokaMuMZuH-97" target="cSvHSWAlFdiokaMuMZuH-95" edge="1">
          <mxGeometry width="50" height="50" relative="1" as="geometry">
            <mxPoint x="450" y="916" as="sourcePoint" />
            <mxPoint x="486" y="863" as="targetPoint" />
          </mxGeometry>
        </mxCell>
        <mxCell id="cSvHSWAlFdiokaMuMZuH-102" value="subClassOf" style="text;html=1;align=center;verticalAlign=middle;resizable=0;points=[];labelBackgroundColor=#ffffff;rotation=0;" parent="cSvHSWAlFdiokaMuMZuH-101" vertex="1" connectable="0">
          <mxGeometry x="-0.2211" relative="1" as="geometry">
            <mxPoint x="19.95" as="offset" />
          </mxGeometry>
        </mxCell>
        <mxCell id="cSvHSWAlFdiokaMuMZuH-103" value="" style="graphMlID=e0;rounded=0;endArrow=block;strokeColor=#000080;strokeWidth=1.0;startArrow=oval;startFill=1;endFill=1;exitX=0.5;exitY=1;exitDx=0;exitDy=0;entryX=0;entryY=0.5;entryDx=0;entryDy=0;edgeStyle=orthogonalEdgeStyle;" parent="1" source="cSvHSWAlFdiokaMuMZuH-90" target="cSvHSWAlFdiokaMuMZuH-105" edge="1">
          <mxGeometry relative="1" as="geometry">
            <mxPoint x="230" y="930.0818375889874" as="sourcePoint" />
            <mxPoint x="381" y="930" as="targetPoint" />
          </mxGeometry>
        </mxCell>
        <mxCell id="cSvHSWAlFdiokaMuMZuH-104" value="&lt;span style=&quot;color: rgb(0, 0, 128); font-family: dialog; font-size: 16px; background-color: rgb(248, 249, 250);&quot;&gt;reo:hasCurrentAffiliation&lt;/span&gt;" style="text;html=1;align=center;verticalAlign=middle;resizable=0;points=[];labelBackgroundColor=#ffffff;" parent="cSvHSWAlFdiokaMuMZuH-103" vertex="1" connectable="0">
          <mxGeometry x="-0.0174" y="2" relative="1" as="geometry">
            <mxPoint as="offset" />
          </mxGeometry>
        </mxCell>
        <mxCell id="cSvHSWAlFdiokaMuMZuH-105" value="dipartimento Di Info - UNITO" style="graphMlID=n9;shape=ellipse;fillColor=#ff99cc;strokeColor=#000000;strokeWidth=3.0;verticalAlign=middle;labelPosition=right;verticalLabelPosition=middle;align=left;spacingRight=1;spacing=17;" parent="1" vertex="1">
          <mxGeometry x="380" y="1020" width="20" height="20" as="geometry" />
        </mxCell>
        <mxCell id="cSvHSWAlFdiokaMuMZuH-107" value="" style="endArrow=classic;html=1;textDirection=ltr;rounded=0;exitX=0.5;exitY=0;exitDx=0;exitDy=0;entryX=0.5;entryY=1;entryDx=0;entryDy=0;" parent="1" source="cSvHSWAlFdiokaMuMZuH-105" target="cSvHSWAlFdiokaMuMZuH-96" edge="1">
          <mxGeometry width="50" height="50" relative="1" as="geometry">
            <mxPoint x="310" y="930" as="sourcePoint" />
            <mxPoint x="457.95000000000005" y="930" as="targetPoint" />
          </mxGeometry>
        </mxCell>
        <mxCell id="cSvHSWAlFdiokaMuMZuH-108" value="rdf:type" style="text;html=1;align=center;verticalAlign=middle;resizable=0;points=[];labelBackgroundColor=#ffffff;rotation=0;" parent="cSvHSWAlFdiokaMuMZuH-107" vertex="1" connectable="0">
          <mxGeometry x="-0.2211" relative="1" as="geometry">
            <mxPoint x="19.95" as="offset" />
          </mxGeometry>
        </mxCell>
        <mxCell id="cSvHSWAlFdiokaMuMZuH-111" value="Università di Torino" style="graphMlID=n9;shape=ellipse;fillColor=#ff99cc;strokeColor=#000000;strokeWidth=3.0;verticalAlign=middle;labelPosition=right;verticalLabelPosition=middle;align=left;spacingRight=1;spacing=17;" parent="1" vertex="1">
          <mxGeometry x="570.98" y="1090" width="20" height="20" as="geometry" />
        </mxCell>
        <mxCell id="cSvHSWAlFdiokaMuMZuH-112" value="" style="graphMlID=e0;rounded=0;endArrow=block;strokeColor=#000080;strokeWidth=1.0;startArrow=oval;startFill=1;endFill=1;exitX=0;exitY=1;exitDx=0;exitDy=0;entryX=0;entryY=0.5;entryDx=0;entryDy=0;edgeStyle=orthogonalEdgeStyle;" parent="1" source="cSvHSWAlFdiokaMuMZuH-90" target="cSvHSWAlFdiokaMuMZuH-111" edge="1">
          <mxGeometry relative="1" as="geometry">
            <mxPoint x="300" y="1090.0818375889874" as="sourcePoint" />
            <mxPoint x="451" y="1090" as="targetPoint" />
          </mxGeometry>
        </mxCell>
        <mxCell id="cSvHSWAlFdiokaMuMZuH-113" value="&lt;span style=&quot;color: rgb(0, 0, 128); font-family: dialog; font-size: 16px; background-color: rgb(248, 249, 250);&quot;&gt;reo:hasCurrentAffiliation&lt;/span&gt;" style="text;html=1;align=center;verticalAlign=middle;resizable=0;points=[];labelBackgroundColor=#ffffff;" parent="cSvHSWAlFdiokaMuMZuH-112" vertex="1" connectable="0">
          <mxGeometry x="-0.0174" y="2" relative="1" as="geometry">
            <mxPoint as="offset" />
          </mxGeometry>
        </mxCell>
        <mxCell id="cSvHSWAlFdiokaMuMZuH-114" value="" style="endArrow=classic;html=1;textDirection=ltr;rounded=0;exitX=0.5;exitY=0;exitDx=0;exitDy=0;entryX=0.5;entryY=1;entryDx=0;entryDy=0;" parent="1" source="cSvHSWAlFdiokaMuMZuH-111" target="cSvHSWAlFdiokaMuMZuH-97" edge="1">
          <mxGeometry width="50" height="50" relative="1" as="geometry">
            <mxPoint x="450" y="1030" as="sourcePoint" />
            <mxPoint x="450" y="960" as="targetPoint" />
          </mxGeometry>
        </mxCell>
        <mxCell id="cSvHSWAlFdiokaMuMZuH-115" value="rdf:type" style="text;html=1;align=center;verticalAlign=middle;resizable=0;points=[];labelBackgroundColor=#ffffff;rotation=0;" parent="cSvHSWAlFdiokaMuMZuH-114" vertex="1" connectable="0">
          <mxGeometry x="-0.2211" relative="1" as="geometry">
            <mxPoint x="19.95" as="offset" />
          </mxGeometry>
        </mxCell>
        <mxCell id="cSvHSWAlFdiokaMuMZuH-116" value="" style="graphMlID=e0;rounded=0;endArrow=block;strokeColor=#000080;strokeWidth=1.0;startArrow=oval;startFill=1;endFill=1;exitX=1;exitY=1;exitDx=0;exitDy=0;" parent="1" source="cSvHSWAlFdiokaMuMZuH-105" edge="1">
          <mxGeometry relative="1" as="geometry">
            <mxPoint x="300" y="1030.0818375889874" as="sourcePoint" />
            <mxPoint x="570" y="1090" as="targetPoint" />
            <Array as="points">
              <mxPoint x="460" y="1080" />
            </Array>
          </mxGeometry>
        </mxCell>
        <mxCell id="cSvHSWAlFdiokaMuMZuH-117" value="&lt;span style=&quot;color: rgb(0, 0, 128); font-family: dialog; font-size: 16px; background-color: rgb(248, 249, 250);&quot;&gt;reo:suborganizationOf&lt;/span&gt;" style="text;html=1;align=center;verticalAlign=middle;resizable=0;points=[];labelBackgroundColor=#ffffff;" parent="cSvHSWAlFdiokaMuMZuH-116" vertex="1" connectable="0">
          <mxGeometry x="-0.0174" y="2" relative="1" as="geometry">
            <mxPoint as="offset" />
          </mxGeometry>
        </mxCell>
        <mxCell id="cSvHSWAlFdiokaMuMZuH-118" value="dul:Type" style="graphMlID=n4;shape=rect;rounded=1;arcsize=30;fillColor=#ffff00;strokeColor=#000000;strokeWidth=1.0" parent="1" vertex="1">
          <mxGeometry x="373" y="1198" width="81.96822102864604" height="44" as="geometry" />
        </mxCell>
        <mxCell id="cSvHSWAlFdiokaMuMZuH-119" value="" style="graphMlID=e0;rounded=0;endArrow=block;strokeColor=#000080;strokeWidth=1.0;startArrow=oval;startFill=1;endFill=1;exitX=0.5;exitY=1;exitDx=0;exitDy=0;entryX=0.5;entryY=0;entryDx=0;entryDy=0;" parent="1" source="cSvHSWAlFdiokaMuMZuH-111" target="cSvHSWAlFdiokaMuMZuH-121" edge="1">
          <mxGeometry relative="1" as="geometry">
            <mxPoint x="530" y="1000.0818375889874" as="sourcePoint" />
            <mxPoint x="590" y="1250" as="targetPoint" />
          </mxGeometry>
        </mxCell>
        <mxCell id="cSvHSWAlFdiokaMuMZuH-120" value="&lt;font face=&quot;dialog&quot; color=&quot;#000080&quot;&gt;&lt;span style=&quot;font-size: 16px; background-color: rgb(248, 249, 250);&quot;&gt;reo:hasType&lt;/span&gt;&lt;/font&gt;" style="text;html=1;align=center;verticalAlign=middle;resizable=0;points=[];labelBackgroundColor=#ffffff;" parent="cSvHSWAlFdiokaMuMZuH-119" vertex="1" connectable="0">
          <mxGeometry x="-0.0174" y="2" relative="1" as="geometry">
            <mxPoint as="offset" />
          </mxGeometry>
        </mxCell>
        <mxCell id="cSvHSWAlFdiokaMuMZuH-121" value="University" style="graphMlID=n9;shape=ellipse;fillColor=#ff99cc;strokeColor=#000000;strokeWidth=3.0;verticalAlign=middle;labelPosition=right;verticalLabelPosition=middle;align=left;spacingRight=1;spacing=17;" parent="1" vertex="1">
          <mxGeometry x="570.98" y="1210" width="20" height="20" as="geometry" />
        </mxCell>
        <mxCell id="cSvHSWAlFdiokaMuMZuH-122" value="" style="endArrow=classic;html=1;textDirection=ltr;rounded=0;exitX=0;exitY=0.5;exitDx=0;exitDy=0;entryX=1;entryY=0.5;entryDx=0;entryDy=0;" parent="1" source="cSvHSWAlFdiokaMuMZuH-121" target="cSvHSWAlFdiokaMuMZuH-118" edge="1">
          <mxGeometry width="50" height="50" relative="1" as="geometry">
            <mxPoint x="560" y="1220" as="sourcePoint" />
            <mxPoint x="707.95" y="1220" as="targetPoint" />
          </mxGeometry>
        </mxCell>
        <mxCell id="cSvHSWAlFdiokaMuMZuH-123" value="rdf:type" style="text;html=1;align=center;verticalAlign=middle;resizable=0;points=[];labelBackgroundColor=#ffffff;rotation=0;" parent="cSvHSWAlFdiokaMuMZuH-122" vertex="1" connectable="0">
          <mxGeometry x="-0.2211" relative="1" as="geometry">
            <mxPoint x="-6" as="offset" />
          </mxGeometry>
        </mxCell>
        <mxCell id="cSvHSWAlFdiokaMuMZuH-124" value="4I SRL" style="graphMlID=n9;shape=ellipse;fillColor=#ff99cc;strokeColor=#000000;strokeWidth=3.0;verticalAlign=middle;labelPosition=right;verticalLabelPosition=middle;align=left;spacingRight=1;spacing=17;" parent="1" vertex="1">
          <mxGeometry x="670" y="817" width="20" height="20" as="geometry" />
        </mxCell>
        <mxCell id="cSvHSWAlFdiokaMuMZuH-126" value="" style="endArrow=classic;html=1;textDirection=ltr;rounded=0;entryX=1;entryY=0.5;entryDx=0;entryDy=0;exitX=0;exitY=0.5;exitDx=0;exitDy=0;" parent="1" source="cSvHSWAlFdiokaMuMZuH-124" target="cSvHSWAlFdiokaMuMZuH-95" edge="1">
          <mxGeometry width="50" height="50" relative="1" as="geometry">
            <mxPoint x="650" y="827" as="sourcePoint" />
            <mxPoint x="532" y="814" as="targetPoint" />
          </mxGeometry>
        </mxCell>
        <mxCell id="cSvHSWAlFdiokaMuMZuH-127" value="rdf:type" style="text;html=1;align=center;verticalAlign=middle;resizable=0;points=[];labelBackgroundColor=#ffffff;rotation=0;" parent="cSvHSWAlFdiokaMuMZuH-126" vertex="1" connectable="0">
          <mxGeometry x="-0.2211" relative="1" as="geometry">
            <mxPoint x="-11" as="offset" />
          </mxGeometry>
        </mxCell>
        <mxCell id="cSvHSWAlFdiokaMuMZuH-128" value="Società rl" style="graphMlID=n9;shape=ellipse;fillColor=#ff99cc;strokeColor=#000000;strokeWidth=3.0;verticalAlign=middle;labelPosition=right;verticalLabelPosition=middle;align=left;spacingRight=1;spacing=17;" parent="1" vertex="1">
          <mxGeometry x="720" y="918" width="20" height="20" as="geometry" />
        </mxCell>
        <mxCell id="cSvHSWAlFdiokaMuMZuH-129" value="" style="graphMlID=e0;rounded=0;endArrow=block;strokeColor=#000080;strokeWidth=1.0;startArrow=oval;startFill=1;endFill=1;exitX=0.5;exitY=1;exitDx=0;exitDy=0;entryX=0.5;entryY=0;entryDx=0;entryDy=0;" parent="1" source="cSvHSWAlFdiokaMuMZuH-124" target="cSvHSWAlFdiokaMuMZuH-128" edge="1">
          <mxGeometry relative="1" as="geometry">
            <mxPoint x="520" y="890.0818375889874" as="sourcePoint" />
            <mxPoint x="671" y="890" as="targetPoint" />
          </mxGeometry>
        </mxCell>
        <mxCell id="cSvHSWAlFdiokaMuMZuH-130" value="&lt;span style=&quot;color: rgb(0, 0, 128); font-family: dialog; font-size: 16px; background-color: rgb(248, 249, 250);&quot;&gt;reo:hasType&lt;/span&gt;" style="text;html=1;align=center;verticalAlign=middle;resizable=0;points=[];labelBackgroundColor=#ffffff;" parent="cSvHSWAlFdiokaMuMZuH-129" vertex="1" connectable="0">
          <mxGeometry x="-0.0174" y="2" relative="1" as="geometry">
            <mxPoint as="offset" />
          </mxGeometry>
        </mxCell>
        <mxCell id="cSvHSWAlFdiokaMuMZuH-131" value="" style="endArrow=classic;html=1;textDirection=ltr;rounded=0;exitX=0.5;exitY=1;exitDx=0;exitDy=0;entryX=0.5;entryY=1;entryDx=0;entryDy=0;edgeStyle=orthogonalEdgeStyle;" parent="1" source="cSvHSWAlFdiokaMuMZuH-128" target="cSvHSWAlFdiokaMuMZuH-118" edge="1">
          <mxGeometry width="50" height="50" relative="1" as="geometry">
            <mxPoint x="530" y="1070" as="sourcePoint" />
            <mxPoint x="677.95" y="1070" as="targetPoint" />
            <Array as="points">
              <mxPoint x="730" y="1252" />
              <mxPoint x="414" y="1252" />
            </Array>
          </mxGeometry>
        </mxCell>
        <mxCell id="cSvHSWAlFdiokaMuMZuH-132" value="rdf:type" style="text;html=1;align=center;verticalAlign=middle;resizable=0;points=[];labelBackgroundColor=#ffffff;rotation=0;" parent="cSvHSWAlFdiokaMuMZuH-131" vertex="1" connectable="0">
          <mxGeometry x="-0.2211" relative="1" as="geometry">
            <mxPoint x="19.95" as="offset" />
          </mxGeometry>
        </mxCell>
        <mxCell id="cSvHSWAlFdiokaMuMZuH-135" value="Scienze matematiche e Informatiche" style="graphMlID=n9;shape=ellipse;fillColor=#ff99cc;strokeColor=#000000;strokeWidth=3.0;verticalAlign=middle;labelPosition=right;verticalLabelPosition=middle;align=left;spacingRight=1;spacing=17;" parent="1" vertex="1">
          <mxGeometry x="149.01" y="1320" width="20" height="20" as="geometry" />
        </mxCell>
        <mxCell id="cSvHSWAlFdiokaMuMZuH-136" value="" style="graphMlID=e0;rounded=0;endArrow=block;strokeColor=#000080;strokeWidth=1.0;startArrow=oval;startFill=1;endFill=1;exitX=0;exitY=0.5;exitDx=0;exitDy=0;entryX=0;entryY=0.5;entryDx=0;entryDy=0;edgeStyle=orthogonalEdgeStyle;" parent="1" source="cSvHSWAlFdiokaMuMZuH-90" target="cSvHSWAlFdiokaMuMZuH-135" edge="1">
          <mxGeometry relative="1" as="geometry">
            <mxPoint x="680" y="1160.0818375889874" as="sourcePoint" />
            <mxPoint x="831" y="1160" as="targetPoint" />
          </mxGeometry>
        </mxCell>
        <mxCell id="cSvHSWAlFdiokaMuMZuH-137" value="&lt;span style=&quot;color: rgb(0, 0, 128); font-family: dialog; font-size: 16px; background-color: rgb(248, 249, 250);&quot;&gt;reo:hasCurrentAccademicArea&lt;/span&gt;" style="text;html=1;align=center;verticalAlign=middle;resizable=0;points=[];labelBackgroundColor=#ffffff;" parent="cSvHSWAlFdiokaMuMZuH-136" vertex="1" connectable="0">
          <mxGeometry x="-0.0174" y="2" relative="1" as="geometry">
            <mxPoint x="24" y="64" as="offset" />
          </mxGeometry>
        </mxCell>
        <mxCell id="cSvHSWAlFdiokaMuMZuH-139" value="reo:AccademinArea" style="graphMlID=n4;shape=rect;rounded=1;arcsize=30;fillColor=#ffff00;strokeColor=#000000;strokeWidth=1.0" parent="1" vertex="1">
          <mxGeometry x="106.05" y="1420" width="105.91" height="54" as="geometry" />
        </mxCell>
        <mxCell id="cSvHSWAlFdiokaMuMZuH-140" value="" style="endArrow=classic;html=1;textDirection=ltr;rounded=0;exitX=0.5;exitY=1;exitDx=0;exitDy=0;entryX=0.5;entryY=0;entryDx=0;entryDy=0;" parent="1" source="cSvHSWAlFdiokaMuMZuH-135" target="cSvHSWAlFdiokaMuMZuH-139" edge="1">
          <mxGeometry width="50" height="50" relative="1" as="geometry">
            <mxPoint x="670" y="1160" as="sourcePoint" />
            <mxPoint x="136" y="1430" as="targetPoint" />
          </mxGeometry>
        </mxCell>
        <mxCell id="cSvHSWAlFdiokaMuMZuH-141" value="rdf:type" style="text;html=1;align=center;verticalAlign=middle;resizable=0;points=[];labelBackgroundColor=#ffffff;rotation=0;" parent="cSvHSWAlFdiokaMuMZuH-140" vertex="1" connectable="0">
          <mxGeometry x="-0.2211" relative="1" as="geometry">
            <mxPoint x="19.95" as="offset" />
          </mxGeometry>
        </mxCell>
        <mxCell id="cSvHSWAlFdiokaMuMZuH-143" value="LS1" style="graphMlID=n9;shape=ellipse;fillColor=#ff99cc;strokeColor=#000000;strokeWidth=3.0;verticalAlign=middle;labelPosition=right;verticalLabelPosition=middle;align=left;spacingRight=1;spacing=17;" parent="1" vertex="1">
          <mxGeometry x="610" y="220" width="20" height="20" as="geometry" />
        </mxCell>
        <mxCell id="cSvHSWAlFdiokaMuMZuH-146" value="" style="endArrow=classic;html=1;textDirection=ltr;rounded=0;exitX=0.5;exitY=0;exitDx=0;exitDy=0;entryX=0.5;entryY=1;entryDx=0;entryDy=0;" parent="1" source="cSvHSWAlFdiokaMuMZuH-143" target="cSvHSWAlFdiokaMuMZuH-148" edge="1">
          <mxGeometry width="50" height="50" relative="1" as="geometry">
            <mxPoint x="570" y="390" as="sourcePoint" />
            <mxPoint x="620" y="120" as="targetPoint" />
          </mxGeometry>
        </mxCell>
        <mxCell id="cSvHSWAlFdiokaMuMZuH-147" value="rdf:type" style="text;html=1;align=center;verticalAlign=middle;resizable=0;points=[];labelBackgroundColor=#ffffff;rotation=0;" parent="cSvHSWAlFdiokaMuMZuH-146" vertex="1" connectable="0">
          <mxGeometry x="-0.2211" relative="1" as="geometry">
            <mxPoint x="19.95" as="offset" />
          </mxGeometry>
        </mxCell>
        <mxCell id="cSvHSWAlFdiokaMuMZuH-148" value="reo:ERCPanel" style="graphMlID=n4;shape=rect;rounded=1;arcsize=30;fillColor=#ffff00;strokeColor=#000000;strokeWidth=1.0" parent="1" vertex="1">
          <mxGeometry x="579.02" y="100" width="81.96822102864604" height="44" as="geometry" />
        </mxCell>
        <mxCell id="cSvHSWAlFdiokaMuMZuH-150" value="" style="graphMlID=e0;rounded=0;endArrow=block;strokeColor=#000080;strokeWidth=1.0;startArrow=oval;startFill=1;endFill=1;exitX=1;exitY=0.5;exitDx=0;exitDy=0;entryX=0;entryY=0.5;entryDx=0;entryDy=0;" parent="1" source="cSvHSWAlFdiokaMuMZuH-34" target="cSvHSWAlFdiokaMuMZuH-143" edge="1">
          <mxGeometry relative="1" as="geometry">
            <mxPoint x="580" y="270.08183758898736" as="sourcePoint" />
            <mxPoint x="731" y="270" as="targetPoint" />
            <Array as="points">
              <mxPoint x="510" y="200" />
            </Array>
          </mxGeometry>
        </mxCell>
        <mxCell id="cSvHSWAlFdiokaMuMZuH-151" value="&lt;span style=&quot;color: rgb(0, 0, 128); font-family: dialog; font-size: 16px; background-color: rgb(248, 249, 250);&quot;&gt;soa:hasTopic&lt;/span&gt;" style="text;html=1;align=center;verticalAlign=middle;resizable=0;points=[];labelBackgroundColor=#ffffff;" parent="cSvHSWAlFdiokaMuMZuH-150" vertex="1" connectable="0">
          <mxGeometry x="-0.0174" y="2" relative="1" as="geometry">
            <mxPoint as="offset" />
          </mxGeometry>
        </mxCell>
        <mxCell id="cSvHSWAlFdiokaMuMZuH-152" value="natural language processing" style="graphMlID=n9;shape=ellipse;fillColor=#ff99cc;strokeColor=#000000;strokeWidth=3.0;verticalAlign=middle;labelPosition=right;verticalLabelPosition=middle;align=left;spacingRight=1;spacing=17;" parent="1" vertex="1">
          <mxGeometry x="610" y="290" width="20" height="20" as="geometry" />
        </mxCell>
        <mxCell id="cSvHSWAlFdiokaMuMZuH-153" value="" style="graphMlID=e0;rounded=0;endArrow=block;strokeColor=#000080;strokeWidth=1.0;startArrow=oval;startFill=1;endFill=1;exitX=1;exitY=0.5;exitDx=0;exitDy=0;entryX=0;entryY=0.5;entryDx=0;entryDy=0;" parent="1" source="cSvHSWAlFdiokaMuMZuH-34" target="cSvHSWAlFdiokaMuMZuH-152" edge="1">
          <mxGeometry relative="1" as="geometry">
            <mxPoint x="441" y="240" as="sourcePoint" />
            <mxPoint x="620" y="240" as="targetPoint" />
            <Array as="points">
              <mxPoint x="510" y="290" />
            </Array>
          </mxGeometry>
        </mxCell>
        <mxCell id="cSvHSWAlFdiokaMuMZuH-154" value="&lt;span style=&quot;color: rgb(0, 0, 128); font-family: dialog; font-size: 16px; background-color: rgb(248, 249, 250);&quot;&gt;soa:hasTopic&lt;/span&gt;" style="text;html=1;align=center;verticalAlign=middle;resizable=0;points=[];labelBackgroundColor=#ffffff;" parent="cSvHSWAlFdiokaMuMZuH-153" vertex="1" connectable="0">
          <mxGeometry x="-0.0174" y="2" relative="1" as="geometry">
            <mxPoint as="offset" />
          </mxGeometry>
        </mxCell>
        <mxCell id="cSvHSWAlFdiokaMuMZuH-155" value="soa:keyword" style="graphMlID=n4;shape=rect;rounded=1;arcsize=30;fillColor=#ffff00;strokeColor=#000000;strokeWidth=1.0" parent="1" vertex="1">
          <mxGeometry x="711.97" y="150" width="81.96822102864604" height="44" as="geometry" />
        </mxCell>
        <mxCell id="cSvHSWAlFdiokaMuMZuH-156" value="" style="endArrow=classic;html=1;textDirection=ltr;rounded=0;exitX=1;exitY=0.5;exitDx=0;exitDy=0;entryX=0.5;entryY=1;entryDx=0;entryDy=0;" parent="1" source="cSvHSWAlFdiokaMuMZuH-152" target="cSvHSWAlFdiokaMuMZuH-155" edge="1">
          <mxGeometry width="50" height="50" relative="1" as="geometry">
            <mxPoint x="630" y="230" as="sourcePoint" />
            <mxPoint x="599" y="124" as="targetPoint" />
          </mxGeometry>
        </mxCell>
        <mxCell id="cSvHSWAlFdiokaMuMZuH-157" value="rdf:type" style="text;html=1;align=center;verticalAlign=middle;resizable=0;points=[];labelBackgroundColor=#ffffff;rotation=0;" parent="cSvHSWAlFdiokaMuMZuH-156" vertex="1" connectable="0">
          <mxGeometry x="-0.2211" relative="1" as="geometry">
            <mxPoint x="19.95" as="offset" />
          </mxGeometry>
        </mxCell>
        <mxCell id="cSvHSWAlFdiokaMuMZuH-158" value="reo:Topic" style="graphMlID=n4;shape=rect;rounded=1;arcsize=30;fillColor=#ffff00;strokeColor=#000000;strokeWidth=1.0" parent="1" vertex="1">
          <mxGeometry x="670" y="20" width="81.96822102864604" height="44" as="geometry" />
        </mxCell>
        <mxCell id="cSvHSWAlFdiokaMuMZuH-159" value="" style="endArrow=classic;html=1;textDirection=ltr;rounded=0;exitX=0.5;exitY=0;exitDx=0;exitDy=0;entryX=0;entryY=0.5;entryDx=0;entryDy=0;" parent="1" source="cSvHSWAlFdiokaMuMZuH-148" target="cSvHSWAlFdiokaMuMZuH-158" edge="1">
          <mxGeometry width="50" height="50" relative="1" as="geometry">
            <mxPoint x="440" y="240" as="sourcePoint" />
            <mxPoint x="587.95" y="240" as="targetPoint" />
          </mxGeometry>
        </mxCell>
        <mxCell id="cSvHSWAlFdiokaMuMZuH-160" value="rdfs:subClassOf" style="text;html=1;align=center;verticalAlign=middle;resizable=0;points=[];labelBackgroundColor=#ffffff;rotation=0;" parent="cSvHSWAlFdiokaMuMZuH-159" vertex="1" connectable="0">
          <mxGeometry x="-0.2211" relative="1" as="geometry">
            <mxPoint x="19.95" as="offset" />
          </mxGeometry>
        </mxCell>
        <mxCell id="cSvHSWAlFdiokaMuMZuH-161" value="" style="endArrow=classic;html=1;textDirection=ltr;rounded=0;exitX=0.5;exitY=0;exitDx=0;exitDy=0;entryX=0.5;entryY=1;entryDx=0;entryDy=0;" parent="1" source="cSvHSWAlFdiokaMuMZuH-155" target="cSvHSWAlFdiokaMuMZuH-158" edge="1">
          <mxGeometry width="50" height="50" relative="1" as="geometry">
            <mxPoint x="630" y="110" as="sourcePoint" />
            <mxPoint x="680" y="52" as="targetPoint" />
          </mxGeometry>
        </mxCell>
        <mxCell id="cSvHSWAlFdiokaMuMZuH-162" value="rdfs:subClassOf" style="text;html=1;align=center;verticalAlign=middle;resizable=0;points=[];labelBackgroundColor=#ffffff;rotation=0;" parent="cSvHSWAlFdiokaMuMZuH-161" vertex="1" connectable="0">
          <mxGeometry x="-0.2211" relative="1" as="geometry">
            <mxPoint x="19.95" as="offset" />
          </mxGeometry>
        </mxCell>
      </root>
    </mxGraphModel>
  </diagram>
</mxfile>
